#!OML:ASF F:\VICON\USERDATA\INSTALL\rory3\rory3.ASF
:FULLY-SPECIFIED
:DEGREES
252
root 4.11089 16.9045 -5.83865 370.968 55.3113 -1.96736
lowerback -6.15547 4.49265 1.07145
upperback -5.83922 6.06138 -0.363945
thorax -2.44476 3.04797 -0.730239
lowerneck -3.78154 -14.1245 -18.3723
upperneck 29.6429 -20.7832 12.1705
head 14.1083 -9.86798 4.68381
rclavicle 2.81467e-014 7.95139e-015
rhumerus -35.954 12.4517 -99.979
rradius 29.5669
rwrist 23.1321
rhand -23.5471 -39.6561
rfingers 7.12502
rthumb 182.915 110.384
lclavicle 2.81467e-014 7.95139e-015
lhumerus -69.3878 30.5433 28.8004
lradius 24.5465
lwrist 24.9332
lhand -40.0395 -746.057
lfingers 7.12502
lthumb -13.0059 3.51744
rfemur -34.5743 13.5709 9.90827
rtibia 42.297
rfoot -18.8831 -7.79805
rtoes -7.04154
lfemur -23.4476 -6.36865 -17.4846
ltibia 41.571
lfoot -27.6525 13.2603
ltoes -6.89441
253
root 4.12407 16.9025 -5.8494 370.952 54.6492 -1.97953
lowerback -6.07571 4.6615 1.17738
upperback -5.80212 6.28493 -0.168374
thorax -2.45748 3.15958 -0.584409
lowerneck -3.23768 -14.4013 -18.4388
upperneck 29.405 -21.2383 12.1628
head 13.9888 -10.1027 4.62529
rclavicle 6.06045e-014 1.94809e-014
rhumerus -36.5426 12.4427 -100.067
rradius 29.1488
rwrist 22.5616
rhand -23.7149 -38.8714
rfingers 7.12502
rthumb 182.753 111.167
lclavicle 6.06045e-014 1.94809e-014
lhumerus -69.9372 30.3012 28.3162
lradius 24.331
lwrist 25.2828
lhand -41.4664 -745.087
lfingers 7.12502
lthumb -14.3811 4.39482
rfemur -34.7645 13.8617 9.76557
rtibia 42.3677
rfoot -18.8783 -7.54681
rtoes -7.48346
lfemur -23.1596 -6.3659 -17.7189
ltibia 41.3635
lfoot -27.4116 14.3877
ltoes -7.59446
254
root 4.1336 16.9035 -5.85734 370.941 54.0049 -2.14441
lowerback -6.13322 4.80555 1.27396
upperback -5.8004 6.47626 0.0459571
thorax -2.43582 3.25707 -0.405441
lowerneck -2.69701 -14.6879 -18.3899
upperneck 29.1857 -21.712 12.121
head 13.861 -10.3372 4.53564
rclavicle 2.41585e-014 3.97569e-015
rhumerus -37.0513 15.2493 -100.542
rradius 29.0724
rwrist 19.9487
rhand -16.8529 -33.0551
rfingers 7.12502
rthumb 189.377 117.173
lclavicle 2.41585e-014 3.97569e-015
lhumerus -70.2986 29.7714 28.204
lradius 24.2892
lwrist 26.243
lhand -42.6172 -745.523
lfingers 7.12502
lthumb -15.4897 3.87683
rfemur -35.0725 14.1526 9.71261
rtibia 42.3841
rfoot -18.8079 -7.32764
rtoes -7.98036
lfemur -23.084 -6.38103 -17.8082
ltibia 41.2211
lfoot -27.1011 15.4624
ltoes -8.33767
255
root 4.14328 16.906 -5.86787 371.388 53.3476 -1.97101
lowerback -6.31041 4.90876 1.28007
upperback -5.8406 6.61477 0.163838
thorax -2.39176 3.33022 -0.268472
lowerneck -2.28776 -14.974 -18.2517
upperneck 28.9604 -22.1603 12.0277
head 13.7316 -10.5519 4.41088
rclavicle -1.07493e-013 -9.93923e-015
rhumerus -38.1195 15.6889 -100.678
rradius 29.2421
rwrist 19.8249
rhand -13.6114 -29.6677
rfingers 7.12502
rthumb 192.504 120.726
lclavicle -1.07493e-013 -9.93923e-015
lhumerus -71.3698 29.8388 26.4288
lradius 24.4903
lwrist 27.3905
lhand -41.3319 -744.045
lfingers 7.12502
lthumb -14.2515 5.4457
rfemur -35.5859 14.2408 9.40158
rtibia 42.3824
rfoot -18.6919 -7.21636
rtoes -9.45092
lfemur -23.2431 -6.07408 -18.0674
ltibia 41.1182
lfoot -27.1422 15.6446
ltoes -7.8839
256
root 4.15272 16.9082 -5.87178 371.622 52.686 -2.03947
lowerback -6.40522 4.99225 1.43281
upperback -5.87629 6.72404 0.377857
thorax -2.38483 3.38541 -0.122007
lowerneck -2.2337 -15.2188 -18.1678
upperneck 28.994 -22.4567 11.7296
head 13.7349 -10.7021 4.22177
rclavicle 5.94739e-014 -1.63003e-014
rhumerus -37.9651 14.6288 -100.128
rradius 28.1379
rwrist 21.3429
rhand 5.6852 -13.253
rfingers 7.12502
rthumb 211.023 139.35
lclavicle 5.94739e-014 -1.63003e-014
lhumerus -72.5351 29.9746 24.5891
lradius 24.6621
lwrist 27.9121
lhand -40.8578 -743.775
lfingers 7.12502
lthumb -13.7946 5.74781
rfemur -36.0801 14.492 9.25016
rtibia 42.3928
rfoot -18.551 -7.30961
rtoes -10.6456
lfemur -23.3726 -5.68263 -18.1535
ltibia 41.0169
lfoot -27.0805 15.9608
ltoes -8.2873
257
root 4.16198 16.9091 -5.86779 371.733 52.0536 -2.19941
lowerback -6.53566 5.09173 1.541
upperback -5.89237 6.85532 0.621296
thorax -2.34687 3.4541 0.0845261
lowerneck -2.06518 -15.418 -18.2194
upperneck 29.0574 -22.7208 11.5471
head 13.7595 -10.8447 4.11325
rclavicle 3.58434e-014 1.03368e-014
rhumerus -37.4562 11.7753 -98.6693
rradius 26.6635
rwrist 24.7857
rhand -18.1892 -34.0655
rfingers 7.12502
rthumb 188.088 116.109
lclavicle 3.58434e-014 1.03368e-014
lhumerus -73.2151 29.7346 23.6343
lradius 24.8112
lwrist 28.2171
lhand -41.6054 -744.633
lfingers 7.12502
lthumb -14.515 4.83954
rfemur -36.5141 14.8246 9.17034
rtibia 42.4075
rfoot -18.5136 -7.00936
rtoes -10.3813
lfemur -23.4334 -5.45837 -18.1672
ltibia 40.915
lfoot -26.9595 16.5021
ltoes -8.81131
